<svg xmlns="http://www.w3.org/2000/svg" xmlns:xlink="http://www.w3.org/1999/xlink" width="117.91" height="125" viewBox="0 0 117.91 125">
  <defs>
    <clipPath id="clip-path">
      <rect id="Rectángulo_18" data-name="Rectángulo 18" width="117.91" height="125" fill="none"/>
    </clipPath>
  </defs>
  <g id="Grupo_31" data-name="Grupo 31" transform="translate(-124.789 -81)">
    <g id="Grupo_30" data-name="Grupo 30" transform="translate(124.789 81)">
      <g id="Grupo_29" data-name="Grupo 29" transform="translate(0 0)" clip-path="url(#clip-path)">
        <path id="Trazado_9" data-name="Trazado 9" d="M8.49,46.157v-.079A14.2,14.2,0,0,1,23.053,31.672c5.659,0,9.3,2.374,11.755,5.74L29.03,41.883c-1.583-1.939-3.405-3.246-6.054-3.246-3.879,0-6.611,3.325-6.611,7.361v.08c0,4.155,2.732,7.4,6.611,7.4,2.888,0,4.589-1.345,6.252-3.363l5.778,4.116a13.948,13.948,0,0,1-12.229,6.252A14.067,14.067,0,0,1,8.49,46.157" transform="translate(4.609 17.194)" fill="#fff"/>
        <path id="Trazado_10" data-name="Trazado 10" d="M38.023,31.9h7.4L57.217,59.8H48.984l-1.978-4.987H36.281L34.3,59.8H26.268ZM44.75,48.841l-3.087-7.836-3.126,7.836Z" transform="translate(14.261 17.319)" fill="#fff"/>
        <path id="Trazado_11" data-name="Trazado 11" d="M46.458,55.785l4.275-5.105A14.348,14.348,0,0,0,59.716,54c2.1,0,3.206-.713,3.206-1.9v-.079c0-1.188-.91-1.78-4.71-2.691-5.9-1.345-10.447-3.007-10.447-8.666v-.08c0-5.144,4.076-8.864,10.725-8.864a17.447,17.447,0,0,1,11.4,3.68l-3.84,5.422a13.607,13.607,0,0,0-7.756-2.731c-1.861,0-2.771.751-2.771,1.78v.08c0,1.267.95,1.821,4.829,2.691,6.33,1.386,10.29,3.444,10.29,8.628v.079c0,5.659-4.473,9.023-11.2,9.023a19.424,19.424,0,0,1-12.982-4.59" transform="translate(25.221 17.222)" fill="#fff"/>
        <path id="Trazado_12" data-name="Trazado 12" d="M64.335,37.288v-.029a5.075,5.075,0,1,1,10.151-.029v.029a5.075,5.075,0,1,1-10.151.029m9.566-.029V37.23a4.492,4.492,0,1,0-8.984.029v.029a4.492,4.492,0,1,0,8.984-.029m-6.767-2.8h2.6c1.4,0,2.333.613,2.333,1.838a1.713,1.713,0,0,1-1.078,1.693l1.254,1.838h-1.9L69.292,38.28h-.5v1.546H67.134Zm2.509,2.567c.5,0,.758-.233.758-.583,0-.38-.262-.583-.728-.583H68.8v1.166Z" transform="translate(34.927 17.456)" fill="#fff"/>
        <path id="Trazado_13" data-name="Trazado 13" d="M82.829,14.346C67.649,7.167,45.076,21.6,45.076,21.6s-2.546-.46-3.055-2.37c-1.142,1.435-1.14,2.064-2.466,3.288,7.633,5.632,16.9,4.65,20.209,3.328-2.378,2.038-2.378,3.566-2.378,3.566s11.379,4.331,29.887-.594c2.888,4.457,1.953,8.958,9.162,7.154A62.422,62.422,0,0,0,82.829,14.346" transform="translate(21.474 6.701)" fill="#fff"/>
        <path id="Trazado_14" data-name="Trazado 14" d="M22.022,24.756C41.378,12.781,59.766,1.412,77.83,3.118a62.452,62.452,0,0,0-76.5,33.839c6.958-3.712,13.937-8.023,20.69-12.2" transform="translate(0.723 0)" fill="#fff"/>
        <path id="Trazado_15" data-name="Trazado 15" d="M81.343,2.89C62,.891,42.855,11.415,22.429,24.054,15.537,28.319,9.983,31.369,2.881,35.132l-1.415.492c-.154.349-.316.7-.466,1.048,18.126,5.753,30.716,4.2,40.9-3.191-.236,2.445.4,3.209.4,3.209S55,32.106,62.9,22.172c.509,1.91,2.844,2.8,2.844,2.8s22.588-14.443,37.768-7.247A62.579,62.579,0,0,0,81.343,2.89" transform="translate(0.543 1.436)" fill="#fff"/>
        <path id="Trazado_16" data-name="Trazado 16" d="M13.607,75.129c15.18,7.179,37.753-7.253,37.753-7.253s2.546.46,3.055,2.37c1.142-1.435,1.14-2.064,2.466-3.288-7.633-5.632-16.9-4.65-20.209-3.328,2.378-2.038,2.378-3.566,2.378-3.566s-11.379-4.331-29.887.594C6.273,56.2,7.208,51.7,0,53.5A62.422,62.422,0,0,0,13.607,75.129" transform="translate(0 28.825)" fill="#fff"/>
        <path id="Trazado_17" data-name="Trazado 17" d="M81.317,69.265C61.961,81.241,43.573,92.609,25.509,90.9a62.458,62.458,0,0,0,76.5-33.84c-6.958,3.712-13.937,8.023-20.69,12.2" transform="translate(13.848 30.979)" fill="#fff"/>
        <path id="Trazado_18" data-name="Trazado 18" d="M31.148,91.328c19.34,2,38.487-8.524,58.914-21.164,6.892-4.265,12.446-7.315,19.548-11.078l1.415-.492c.154-.349.316-.7.466-1.048-18.126-5.753-30.716-4.2-40.9,3.191.236-2.445-.4-3.209-.4-3.209s-12.693,4.584-20.59,14.519c-.509-1.91-2.844-2.8-2.844-2.8S24.163,83.689,8.983,76.493A62.578,62.578,0,0,0,31.148,91.328" transform="translate(4.877 29.345)" fill="#fff"/>
      </g>
    </g>
  </g>
</svg>
